<svg xmlns="http://www.w3.org/2000/svg" viewBox="0 0 576 512"><!--!Font Awesome Free 6.5.2 by @fontawesome - https://fontawesome.com License - https://fontawesome.com/license/free Copyright 2024 Fonticons, Inc.--><path fill="#ffffff" d="M480 416v16c0 26.5-21.5 48-48 48H48c-26.5 0-48-21.5-48-48V176c0-26.5 21.5-48 48-48h16v208c0 44.1 35.9 80 80 80h336zm96-80V80c0-26.5-21.5-48-48-48H144c-26.5 0-48 21.5-48 48v256c0 26.5 21.5 48 48 48h384c26.5 0 48-21.5 48-48zM256 128c0 26.5-21.5 48-48 48s-48-21.5-48-48 21.5-48 48-48 48 21.5 48 48zm-96 144l55.5-55.5c4.7-4.7 12.3-4.7 17 0L272 256l135.5-135.5c4.7-4.7 12.3-4.7 17 0L512 208v112H160v-48z"/></svg>